<svg xmlns="http://www.w3.org/2000/svg" xmlns:xlink="http://www.w3.org/1999/xlink" version="1.1" x="0px" y="0px" viewBox="0 0 100 125" enable-background="new 0 0 100 100" xml:space="preserve"><g><path fill="#000000" d="M55.575,71.095c2.86,0,5.352-1.536,6.748-3.818c1.394,2.282,3.886,3.818,6.747,3.818   c3.988,0,7.256-2.975,7.803-6.821h-29.1C48.321,68.119,51.586,71.095,55.575,71.095z"/><path fill="#000000" d="M19.614,71.095c2.861,0,5.353-1.536,6.748-3.818c1.396,2.282,3.887,3.818,6.747,3.818   c3.988,0,7.255-2.976,7.802-6.821H11.815C12.363,68.12,15.625,71.095,19.614,71.095z"/><path fill="#000000" d="M80.859,34.348l-10.645-5.442H2.163v28.571l4.952,0.003v6.389H2.529v-0.985H0.484v0.985v2.324h2.045h6.694   v-2.141l1.328,0.003v-1.408h68.24l-0.019,4.485l12.629-0.06l8.113-11.604L80.859,34.348z M67.064,49.062H11.59v-1.579h55.475   V49.062z M67.064,45.758H11.59v-1.579h55.475V45.758z M67.064,42.454H11.59v-1.578h55.475V42.454z M67.064,39.149H11.59v-1.577   h55.475V39.149z M67.064,35.847H11.59v-1.578h55.475V35.847z M69.663,49.168V33.096L79.5,37.47l9.438,11.698H69.663z"/></g><text x="0" y="115" fill="#000000" font-size="5px" font-weight="bold" font-family="'Helvetica Neue', Helvetica, Arial-Unicode, Arial, Sans-serif">Created by Phil Laver</text><text x="0" y="120" fill="#000000" font-size="5px" font-weight="bold" font-family="'Helvetica Neue', Helvetica, Arial-Unicode, Arial, Sans-serif">from the Noun Project</text></svg>