<svg xmlns="http://www.w3.org/2000/svg" data-name="Layer 1" viewBox="0 0 96 120" x="0px" y="0px"><title>Artboard 51</title><rect x="2" y="36" width="92" height="12" rx="2" ry="2"/><path d="M93.79,31.11C93.64,30.81,78.88,2,48,2S2.36,30.81,2.21,31.11a1.97471,1.97471,0,0,0,.09,1.94A1.99673,1.99673,0,0,0,4,34H92a1.99673,1.99673,0,0,0,1.7-.95A1.97471,1.97471,0,0,0,93.79,31.11ZM48,27.88a8.5,8.5,0,1,1,8.5-8.5A8.51209,8.51209,0,0,1,48,27.88Z"/><rect x="76" y="44" width="12" height="42" rx="2" ry="2"/><rect x="8" y="44" width="12" height="42" rx="2" ry="2"/><path d="M92,82H60V64a12,12,0,0,0-24,0V82H4a2.0001,2.0001,0,0,0-2,2v8a2.0001,2.0001,0,0,0,2,2H92a2.0001,2.0001,0,0,0,2-2V84A2.0001,2.0001,0,0,0,92,82Z"/><text x="0" y="111" fill="#000000" font-size="5px" font-weight="bold" font-family="'Helvetica Neue', Helvetica, Arial-Unicode, Arial, Sans-serif">Created by Adi Kurniawan</text><text x="0" y="116" fill="#000000" font-size="5px" font-weight="bold" font-family="'Helvetica Neue', Helvetica, Arial-Unicode, Arial, Sans-serif">from the Noun Project</text></svg>